<svg id="visual" viewBox="0 0 900 675" width="900" height="675" xmlns="http://www.w3.org/2000/svg" xmlns:xlink="http://www.w3.org/1999/xlink" version="1.1"><rect x="0" y="0" width="900" height="675" fill="#4F81C7"></rect><defs><linearGradient id="grad1_0" x1="25%" y1="0%" x2="100%" y2="100%"><stop offset="23.333333333333336%" stop-color="#64c4ed" stop-opacity="1"></stop><stop offset="76.66666666666666%" stop-color="#64c4ed" stop-opacity="1"></stop></linearGradient></defs><defs><linearGradient id="grad1_1" x1="25%" y1="0%" x2="100%" y2="100%"><stop offset="23.333333333333336%" stop-color="#64c4ed" stop-opacity="1"></stop><stop offset="76.66666666666666%" stop-color="#4f81c7" stop-opacity="1"></stop></linearGradient></defs><defs><linearGradient id="grad2_0" x1="0%" y1="0%" x2="75%" y2="100%"><stop offset="23.333333333333336%" stop-color="#64c4ed" stop-opacity="1"></stop><stop offset="76.66666666666666%" stop-color="#64c4ed" stop-opacity="1"></stop></linearGradient></defs><defs><linearGradient id="grad2_1" x1="0%" y1="0%" x2="75%" y2="100%"><stop offset="23.333333333333336%" stop-color="#4f81c7" stop-opacity="1"></stop><stop offset="76.66666666666666%" stop-color="#64c4ed" stop-opacity="1"></stop></linearGradient></defs><g transform="translate(900, 0)"><path d="M0 478.1C-63.1 472.7 -126.2 467.3 -183 441.7C-239.7 416.1 -290.1 370.3 -318.9 318.9C-347.7 267.5 -354.9 210.6 -377.9 156.5C-400.8 102.4 -439.5 51.2 -478.1 0L0 0Z" fill="#50a3dd"></path><path d="M0 239.1C-31.6 236.4 -63.1 233.7 -91.5 220.9C-119.9 208.1 -145.1 185.1 -159.5 159.5C-173.9 133.8 -177.5 105.3 -188.9 78.3C-200.4 51.2 -219.7 25.6 -239.1 0L0 0Z" fill="#64c4ed"></path></g><g transform="translate(0, 675)"><path d="M0 -478.1C65.4 -474.1 130.7 -470 183 -441.7C235.2 -413.4 274.3 -360.8 314 -314C353.6 -267.1 393.8 -225.9 421.3 -174.5C448.7 -123.1 463.4 -61.6 478.1 0L0 0Z" fill="#50a3dd"></path><path d="M0 -239.1C32.7 -237 65.4 -235 91.5 -220.9C117.6 -206.7 137.1 -180.4 157 -157C176.8 -133.5 196.9 -112.9 210.6 -87.3C224.4 -61.6 231.7 -30.8 239.1 0L0 0Z" fill="#64c4ed"></path></g></svg>