<svg id="visual" viewBox="0 0 900 675" width="900" height="675" xmlns="http://www.w3.org/2000/svg" xmlns:xlink="http://www.w3.org/1999/xlink" version="1.1"><path d="M0 150L13.7 172.5C27.3 195 54.7 240 82 255.7C109.3 271.3 136.7 257.7 163.8 244.2C191 230.7 218 217.3 245.2 218.5C272.3 219.7 299.7 235.3 327 226.3C354.3 217.3 381.7 183.7 409 187C436.3 190.3 463.7 230.7 491 244.2C518.3 257.7 545.7 244.3 573 229.7C600.3 215 627.7 199 654.8 195.5C682 192 709 201 736.2 216.8C763.3 232.7 790.7 255.3 818 247.5C845.3 239.7 872.7 201.3 886.3 182.2L900 163L900 0L886.3 0C872.7 0 845.3 0 818 0C790.7 0 763.3 0 736.2 0C709 0 682 0 654.8 0C627.7 0 600.3 0 573 0C545.7 0 518.3 0 491 0C463.7 0 436.3 0 409 0C381.7 0 354.3 0 327 0C299.7 0 272.3 0 245.2 0C218 0 191 0 163.8 0C136.7 0 109.3 0 82 0C54.7 0 27.3 0 13.7 0L0 0Z" fill="#87a7d9"></path><path d="M0 231L13.7 246.7C27.3 262.3 54.7 293.7 82 313.8C109.3 334 136.7 343 163.8 338.5C191 334 218 316 245.2 313.8C272.3 311.7 299.7 325.3 327 318.7C354.3 312 381.7 285 409 286C436.3 287 463.7 316 491 319.3C518.3 322.7 545.7 300.3 573 292.5C600.3 284.7 627.7 291.3 654.8 297C682 302.7 709 307.3 736.2 317.5C763.3 327.7 790.7 343.3 818 337.7C845.3 332 872.7 305 886.3 291.5L900 278L900 161L886.3 180.2C872.7 199.3 845.3 237.7 818 245.5C790.7 253.3 763.3 230.7 736.2 214.8C709 199 682 190 654.8 193.5C627.7 197 600.3 213 573 227.7C545.7 242.3 518.3 255.7 491 242.2C463.7 228.7 436.3 188.3 409 185C381.7 181.7 354.3 215.3 327 224.3C299.7 233.3 272.3 217.7 245.2 216.5C218 215.3 191 228.7 163.8 242.2C136.7 255.7 109.3 269.3 82 253.7C54.7 238 27.3 193 13.7 170.5L0 148Z" fill="#6c94d0"></path><path d="M0 305L13.7 320.7C27.3 336.3 54.7 367.7 82 387.8C109.3 408 136.7 417 163.8 422.7C191 428.3 218 430.7 245.2 433C272.3 435.3 299.7 437.7 327 418.5C354.3 399.3 381.7 358.7 409 351.8C436.3 345 463.7 372 491 385.5C518.3 399 545.7 399 573 398C600.3 397 627.7 395 654.8 401.8C682 408.7 709 424.3 736.2 428.8C763.3 433.3 790.7 426.7 818 414.3C845.3 402 872.7 384 886.3 375L900 366L900 276L886.3 289.5C872.7 303 845.3 330 818 335.7C790.7 341.3 763.3 325.7 736.2 315.5C709 305.3 682 300.7 654.8 295C627.7 289.3 600.3 282.7 573 290.5C545.7 298.3 518.3 320.7 491 317.3C463.7 314 436.3 285 409 284C381.7 283 354.3 310 327 316.7C299.7 323.3 272.3 309.7 245.2 311.8C218 314 191 332 163.8 336.5C136.7 341 109.3 332 82 311.8C54.7 291.7 27.3 260.3 13.7 244.7L0 229Z" fill="#4f81c7"></path><path d="M0 507L13.7 508.2C27.3 509.3 54.7 511.7 82 517.3C109.3 523 136.7 532 163.8 538.8C191 545.7 218 550.3 245.2 560.5C272.3 570.7 299.7 586.3 327 579.5C354.3 572.7 381.7 543.3 409 537.7C436.3 532 463.7 550 491 559C518.3 568 545.7 568 573 559C600.3 550 627.7 532 654.8 524.2C682 516.3 709 518.7 736.2 528.8C763.3 539 790.7 557 818 563.7C845.3 570.3 872.7 565.7 886.3 563.3L900 561L900 364L886.3 373C872.7 382 845.3 400 818 412.3C790.7 424.7 763.3 431.3 736.2 426.8C709 422.3 682 406.7 654.8 399.8C627.7 393 600.3 395 573 396C545.7 397 518.3 397 491 383.5C463.7 370 436.3 343 409 349.8C381.7 356.7 354.3 397.3 327 416.5C299.7 435.7 272.3 433.3 245.2 431C218 428.7 191 426.3 163.8 420.7C136.7 415 109.3 406 82 385.8C54.7 365.7 27.3 334.3 13.7 318.7L0 303Z" fill="#446fad"></path><path d="M0 676L13.7 676C27.3 676 54.7 676 82 676C109.3 676 136.7 676 163.8 676C191 676 218 676 245.2 676C272.3 676 299.7 676 327 676C354.3 676 381.7 676 409 676C436.3 676 463.7 676 491 676C518.3 676 545.7 676 573 676C600.3 676 627.7 676 654.8 676C682 676 709 676 736.2 676C763.3 676 790.7 676 818 676C845.3 676 872.7 676 886.3 676L900 676L900 559L886.3 561.3C872.7 563.7 845.3 568.3 818 561.7C790.7 555 763.3 537 736.2 526.8C709 516.7 682 514.3 654.8 522.2C627.7 530 600.3 548 573 557C545.7 566 518.3 566 491 557C463.7 548 436.3 530 409 535.7C381.7 541.3 354.3 570.7 327 577.5C299.7 584.3 272.3 568.7 245.2 558.5C218 548.3 191 543.7 163.8 536.8C136.7 530 109.3 521 82 515.3C54.7 509.7 27.3 507.3 13.7 506.2L0 505Z" fill="#395e93"></path></svg>