<!--suppress ALL -->


<svg id="visual"
    viewBox="0 0 900 600"
    width="900"
    height="600"
    xmlns="http://www.w3.org/2000/svg"
    version="1.1"><rect x="0" y="0" width="900" height="600" fill="#4F81C7"></rect><path d="M0 290L21.5 276.2C43 262.3 86 234.7 128.8 237.5C171.7 240.3 214.3 273.7 257.2 295.7C300 317.7 343 328.3 385.8 322.5C428.7 316.7 471.3 294.3 514.2 278.5C557 262.7 600 253.3 642.8 260.2C685.7 267 728.3 290 771.2 304.8C814 319.7 857 326.3 878.5 329.7L900 333L900 601L878.5 601C857 601 814 601 771.2 601C728.3 601 685.7 601 642.8 601C600 601 557 601 514.2 601C471.3 601 428.7 601 385.8 601C343 601 300 601 257.2 601C214.3 601 171.7 601 128.8 601C86 601 43 601 21.5 601L0 601Z" fill="#64c4ed"></path><path d="M0 421L21.5 416.8C43 412.7 86 404.3 128.8 405C171.7 405.7 214.3 415.3 257.2 416.7C300 418 343 411 385.8 406.2C428.7 401.3 471.3 398.7 514.2 381.5C557 364.3 600 332.7 642.8 315.2C685.7 297.7 728.3 294.3 771.2 299.7C814 305 857 319 878.5 326L900 333L900 601L878.5 601C857 601 814 601 771.2 601C728.3 601 685.7 601 642.8 601C600 601 557 601 514.2 601C471.3 601 428.7 601 385.8 601C343 601 300 601 257.2 601C214.3 601 171.7 601 128.8 601C86 601 43 601 21.5 601L0 601Z" fill="#54aee3"></path><path d="M0 389L21.5 392C43 395 86 401 128.8 416.5C171.7 432 214.3 457 257.2 469.3C300 481.7 343 481.3 385.8 476.3C428.7 471.3 471.3 461.7 514.2 455.8C557 450 600 448 642.8 438.7C685.7 429.3 728.3 412.7 771.2 414C814 415.3 857 434.7 878.5 444.3L900 454L900 601L878.5 601C857 601 814 601 771.2 601C728.3 601 685.7 601 642.8 601C600 601 557 601 514.2 601C471.3 601 428.7 601 385.8 601C343 601 300 601 257.2 601C214.3 601 171.7 601 128.8 601C86 601 43 601 21.5 601L0 601Z" fill="#4e98d6"></path><path d="M0 497L21.5 499.5C43 502 86 507 128.8 504C171.7 501 214.3 490 257.2 495.5C300 501 343 523 385.8 528.5C428.7 534 471.3 523 514.2 509C557 495 600 478 642.8 480.3C685.7 482.7 728.3 504.3 771.2 510.3C814 516.3 857 506.7 878.5 501.8L900 497L900 601L878.5 601C857 601 814 601 771.2 601C728.3 601 685.7 601 642.8 601C600 601 557 601 514.2 601C471.3 601 428.7 601 385.8 601C343 601 300 601 257.2 601C214.3 601 171.7 601 128.8 601C86 601 43 601 21.5 601L0 601Z" fill="#4f81c7"></path></svg>