<svg id="visual" viewBox="0 0 900 675" width="900" height="675" xmlns="http://www.w3.org/2000/svg" xmlns:xlink="http://www.w3.org/1999/xlink" version="1.1"><rect x="0" y="0" width="900" height="675" fill="#4F81C7"></rect><path d="M0 243L16.7 280.3C33.3 317.7 66.7 392.3 100 442.7C133.3 493 166.7 519 200 472C233.3 425 266.7 305 300 312.2C333.3 319.3 366.7 453.7 400 501.2C433.3 548.7 466.7 509.3 500 517.2C533.3 525 566.7 580 600 535.2C633.3 490.3 666.7 345.7 700 274.3C733.3 203 766.7 205 800 209C833.3 213 866.7 219 883.3 222L900 225" fill="none" stroke-linecap="round" stroke-linejoin="miter" stroke="#355b95" stroke-width="4"></path></svg>