<!--suppress ALL -->




<svg id="visual" viewBox="0 0 900 675" width="900" height="675" xmlns="http://www.w3.org/2000/svg" xmlns:xlink="http://www.w3.org/1999/xlink" version="1.1"><path d="M0 123L100 123L100 150L200 150L200 156L300 156L300 177L400 177L400 129L500 129L500 190L600 190L600 150L700 150L700 183L800 183L800 136L900 136L900 116L900 0L900 0L800 0L800 0L700 0L700 0L600 0L600 0L500 0L500 0L400 0L400 0L300 0L300 0L200 0L200 0L100 0L100 0L0 0Z" fill="#87a7d9"></path><path d="M0 258L100 258L100 339L200 339L200 278L300 278L300 372L400 372L400 393L500 393L500 494L600 494L600 413L700 413L700 379L800 379L800 413L900 413L900 332L900 114L900 134L800 134L800 181L700 181L700 148L600 148L600 188L500 188L500 127L400 127L400 175L300 175L300 154L200 154L200 148L100 148L100 121L0 121Z" fill="#638ecd"></path><path d="M0 582L100 582L100 514L200 514L200 548L300 548L300 595L400 595L400 534L500 534L500 622L600 622L600 561L700 561L700 514L800 514L800 534L900 534L900 609L900 330L900 411L800 411L800 377L700 377L700 411L600 411L600 492L500 492L500 391L400 391L400 370L300 370L300 276L200 276L200 337L100 337L100 256L0 256Z" fill="#4875b5"></path><path d="M0 676L100 676L100 676L200 676L200 676L300 676L300 676L400 676L400 676L500 676L500 676L600 676L600 676L700 676L700 676L800 676L800 676L900 676L900 676L900 607L900 532L800 532L800 512L700 512L700 559L600 559L600 620L500 620L500 532L400 532L400 593L300 593L300 546L200 546L200 512L100 512L100 580L0 580Z" fill="#395e93"></path></svg>