<!--suppress ALL -->


<svg id="visual"
    viewBox="0 0 900 600"
    width="900"
    height="600"
    xmlns="http://www.w3.org/2000/svg"
    version="1.1"><rect width="900" height="600" fill="#4F81C7"></rect><g><g transform="translate(363 579)"><path d="M153.6 -52.3C172.9 9.6 144.4 84.6 91.7 121.8C39.1 159 -37.8 158.4 -85.6 122.5C-133.4 86.7 -152.2 15.6 -133.1 -46C-114 -107.6 -57 -159.7 5.1 -161.4C67.1 -163 134.3 -114.2 153.6 -52.3Z" stroke="#64C4ED" fill="none" stroke-width="20"></path></g><g transform="translate(191 106)"><path d="M142.5 -45.4C162.7 15.8 142 91.3 95.2 123.6C48.4 155.8 -24.5 144.9 -76.8 106.6C-129.1 68.4 -161 2.9 -144.7 -52.8C-128.5 -108.6 -64.3 -154.5 -1.5 -154C61.2 -153.5 122.3 -106.6 142.5 -45.4Z" stroke="#64C4ED" fill="none" stroke-width="20"></path></g><g transform="translate(818 64)"><path d="M86.4 -28.4C99 10.7 87.3 57.4 58 78.3C28.8 99.2 -18.1 94.3 -48.5 71.1C-79 48 -93.1 6.6 -82.2 -30.1C-71.4 -66.8 -35.7 -98.9 0.6 -99.1C36.9 -99.3 73.8 -67.6 86.4 -28.4Z" stroke="#64C4ED" fill="none" stroke-width="20"></path></g><g transform="translate(856 583)"><path d="M116.3 -39.3C133.1 13.9 116.9 76.2 73.9 109.3C30.9 142.4 -39 146.1 -86.8 112.9C-134.5 79.7 -160.2 9.7 -142.1 -45.4C-124 -100.4 -62 -140.3 -6.1 -138.3C49.8 -136.3 99.5 -92.4 116.3 -39.3Z" stroke="#64C4ED" fill="none" stroke-width="20"></path></g></g></svg>