<!--suppress ALL -->


<svg id="visual"
    viewBox="0 0 900 600"
    width="900"
    height="600"
    xmlns="http://www.w3.org/2000/svg"
    version="1.1"><rect x="0" y="0" width="900" height="600" fill="#4F81C7"></rect><path d="M0 67L15 64.3C30 61.7 60 56.3 90 67.5C120 78.7 150 106.3 180 108.2C210 110 240 86 270 66.7C300 47.3 330 32.7 360 47C390 61.3 420 104.7 450 145.8C480 187 510 226 540 210.5C570 195 600 125 630 130C660 135 690 215 720 230.7C750 246.3 780 197.7 810 151.3C840 105 870 61 885 39L900 17L900 0L885 0C870 0 840 0 810 0C780 0 750 0 720 0C690 0 660 0 630 0C600 0 570 0 540 0C510 0 480 0 450 0C420 0 390 0 360 0C330 0 300 0 270 0C240 0 210 0 180 0C150 0 120 0 90 0C60 0 30 0 15 0L0 0Z" fill="#64C4ED" stroke-linecap="round" stroke-linejoin="miter"></path></svg>